<?xml version="1.0" encoding="UTF-8" standalone="no"?>
<!-- Created with Inkscape (http://www.inkscape.org/) -->

<svg
   xmlns:dc="http://purl.org/dc/elements/1.1/"
   xmlns:cc="http://creativecommons.org/ns#"
   xmlns:rdf="http://www.w3.org/1999/02/22-rdf-syntax-ns#"
   xmlns:svg="http://www.w3.org/2000/svg"
   xmlns="http://www.w3.org/2000/svg"
   xmlns:xlink="http://www.w3.org/1999/xlink"
   xmlns:sodipodi="http://sodipodi.sourceforge.net/DTD/sodipodi-0.dtd"
   xmlns:inkscape="http://www.inkscape.org/namespaces/inkscape"
   width="380"
   height="106"
   viewBox="0 0 379.99999 106"
   id="svg5252"
   version="1.1"
   inkscape:version="0.91 r13725"
   sodipodi:docname="logo.svg">
  <defs
     id="defs5254">
    <clipPath
       clipPathUnits="userSpaceOnUse"
       id="clipPath4347">
      <path
         style="fill:none;stroke:#000000;stroke-width:1px;stroke-linecap:butt;stroke-linejoin:miter;stroke-opacity:1"
         d="m -621.24382,793.76313 101.01526,11.11168 131.31983,-7.07107 68.69037,3.03046 48.48733,1.01015 58.58884,-235.36554 -82.83251,-185.86807 -194.95944,-25.25381 -204.05081,22.22335 -35.35534,91.92388 -9.09137,127.27922 z"
         id="path4349"
         inkscape:connector-curvature="0" />
    </clipPath>
    <clipPath
       clipPathUnits="userSpaceOnUse"
       id="clipPath4369">
      <circle
         r="176.7767"
         cy="593.75293"
         cx="-458.60925"
         transform="matrix(0.9629619,0,0,0.9629619,-35.673837,44.719911)"
         id="path4371"
         style="fill:url(#linearGradient4373);fill-opacity:1;stroke:none" />
    </clipPath>
    <clipPath
       clipPathUnits="userSpaceOnUse"
       id="clipPath4347-8">
      <path
         style="fill:none;stroke:#000000;stroke-width:1px;stroke-linecap:butt;stroke-linejoin:miter;stroke-opacity:1"
         d="m -621.24382,793.76313 101.01526,11.11168 131.31983,-7.07107 68.69037,3.03046 48.48733,1.01015 58.58884,-235.36554 -82.83251,-185.86807 -194.95944,-25.25381 -204.05081,22.22335 -35.35534,91.92388 -9.09137,127.27922 z"
         id="path4349-2"
         inkscape:connector-curvature="0" />
    </clipPath>
    <filter
       style="color-interpolation-filters:sRGB"
       inkscape:collect="always"
       id="filter4341">
      <feGaussianBlur
         inkscape:collect="always"
         stdDeviation="9.2116954"
         id="feGaussianBlur4343" />
    </filter>
    <linearGradient
       inkscape:collect="always"
       xlink:href="#linearGradient4037"
       id="linearGradient3596"
       gradientUnits="userSpaceOnUse"
       x1="-453.88873"
       y1="454.75967"
       x2="-453.88873"
       y2="710.73639" />
    <linearGradient
       inkscape:collect="always"
       id="linearGradient4037">
      <stop
         style="stop-color:#de5d08;stop-opacity:1;"
         offset="0"
         id="stop4039" />
      <stop
         style="stop-color:#f8e80f;stop-opacity:1"
         offset="1"
         id="stop4041" />
    </linearGradient>
    <clipPath
       clipPathUnits="userSpaceOnUse"
       id="clipPath4369-0">
      <circle
         r="176.7767"
         cy="593.75293"
         cx="-458.60925"
         transform="matrix(0.9629619,0,0,0.9629619,-35.673837,44.719911)"
         id="path4371-6"
         style="fill:url(#linearGradient4373);fill-opacity:1;stroke:none" />
    </clipPath>
    <filter
       style="color-interpolation-filters:sRGB"
       inkscape:collect="always"
       id="filter4363">
      <feGaussianBlur
         inkscape:collect="always"
         stdDeviation="7.3693856"
         id="feGaussianBlur4365" />
    </filter>
    <filter
       style="color-interpolation-filters:sRGB"
       inkscape:collect="always"
       id="filter4306">
      <feGaussianBlur
         inkscape:collect="always"
         stdDeviation="6.6950533"
         id="feGaussianBlur4308" />
    </filter>
  </defs>
  <sodipodi:namedview
     id="base"
     pagecolor="#ffffff"
     bordercolor="#666666"
     borderopacity="1.0"
     inkscape:pageopacity="0.0"
     inkscape:pageshadow="2"
     inkscape:zoom="0.98994949"
     inkscape:cx="-16.707242"
     inkscape:cy="76.837701"
     inkscape:document-units="px"
     inkscape:current-layer="layer1"
     showgrid="false"
     fit-margin-top="0"
     fit-margin-left="0"
     fit-margin-right="0"
     fit-margin-bottom="0"
     inkscape:window-width="1680"
     inkscape:window-height="992"
     inkscape:window-x="0"
     inkscape:window-y="27"
     inkscape:window-maximized="1"
     units="px" />
  <metadata
     id="metadata5257">
    <rdf:RDF>
      <cc:Work
         rdf:about="">
        <dc:format>image/svg+xml</dc:format>
        <dc:type
           rdf:resource="http://purl.org/dc/dcmitype/StillImage" />
        <dc:title></dc:title>
      </cc:Work>
    </rdf:RDF>
  </metadata>
  <g
     inkscape:label="Camada 1"
     inkscape:groupmode="layer"
     id="layer1"
     transform="translate(-72.259084,-575.8028)">
    <g
       id="g5239"
       transform="matrix(0.95395916,0,0,0.95395916,233.33973,249.37849)">
      <g
         transform="matrix(0.55070892,0,0,0.55070892,-1401.9894,346.84888)"
         id="g3548">
        <g
           transform="matrix(0.47346056,0,0,0.47346056,2195.3677,13.619228)"
           id="g3262">
          <path
             inkscape:connector-curvature="0"
             clip-path="url(#clipPath4347-8)"
             id="path3264"
             d="m -477.65625,438.90625 c -4.10308,0.17947 -8.34029,2.67419 -11.34375,7.75 -47.3387,3.21235 -89.35012,25.774 -118.21875,59.84375 -0.21286,-0.67272 -0.28125,-1.73894 -0.28125,-3.46875 0,-3.54283 -0.56841,-5.09966 -2.5625,-7.09375 l -2.5625,-2.5625 -16.6875,0.65625 c -9.18037,0.36517 -20.16017,1.11532 -24.40625,1.65625 -20.49699,2.61121 -32.08573,11.31121 -26.21875,19.6875 2.12419,3.0327 7.49355,5.55948 16.1875,7.65625 5.75749,1.38857 7.70324,2.365 9.3125,4.625 4.17431,5.86228 10.0574,8.26292 22.5625,9.21875 1.35981,0.10394 2.58784,0.35437 3.71875,0.71875 -12.35629,23.5834 -19.375,50.40455 -19.375,78.875 0,84.50544 61.58109,154.64741 142.3125,167.96875 0.0701,1.58503 0.13549,3.18137 0.25,4.625 l 0.15625,0.0937 -0.15625,3.125 10.78125,-0.6875 1.1875,-2.21875 0.0937,-1.4375 L -493.375,786 c -0.007,-0.01 -0.0244,-0.021 -0.0312,-0.0312 0.80516,0.0756 1.59786,0.12314 2.40625,0.1875 l -0.28125,0.40625 -0.25,4.5 8.125,2.28125 3.9375,-0.0937 0.75,-2.8125 -0.21875,-3.75 c 0.54445,0.005 1.07934,0.0312 1.625,0.0312 47.73011,0 90.87088,-19.66842 121.78125,-51.3125 3.10854,19.78601 4.29705,41.77019 2.09375,48.4375 l -1.25,3.78125 -0.5625,2.09375 -0.25,2.46875 3.34375,1.84375 5.75,-0.46875 2.3125,-0.9375 0.1875,-4.03125 -0.5,-2.34375 0.0625,0 c -0.1993,-1.24407 -0.10886,-3.62057 0.21875,-8.28125 0.65175,-9.27198 1.72641,-13.286 3.5625,-13.1875 0.12241,0.007 0.24569,0.0197 0.375,0.0625 1.86139,0.61561 2.07249,14.86921 0.28125,19.15625 -0.41368,0.99006 -0.94192,1.81791 -1.46875,2.4375 l -0.0937,0.125 -1.09375,1.46875 -0.6875,2.375 -0.0625,1.90625 3.03125,1.5 7.5,0.28125 2.96875,-0.96875 0.75,-4.90625 0,-0.0312 0.75,-9.375 c 0.41904,-5.3625 1.49444,-14.39627 2.375,-20.09375 2.67086,-17.28116 3.24867,-25.8984 2.3125,-34.46875 -0.87496,-8.01 -3.69479,-15.42578 -7.5625,-20.375 7.23324,-12.06735 13.00732,-25.10855 17.09375,-38.875 4.09979,4.53417 7.09793,7.5625 7.65625,7.5625 1.42187,0 5.84063,-7.1719 6.53125,-10.625 0.96008,-4.80039 -1.76711,-9.24013 -9.71875,-15.90625 1.67904,-9.59544 2.5625,-19.48619 2.5625,-29.5625 0,-90.34815 -70.38415,-164.24712 -159.3125,-169.875 -2.32141,-5.20794 -6.71416,-7.88726 -11.28125,-7.6875 z"
             style="fill:#ffffff;fill-opacity:1;stroke:#ffffff;stroke-width:28;stroke-linecap:round;stroke-linejoin:miter;stroke-miterlimit:4;stroke-dasharray:none;stroke-dashoffset:0;stroke-opacity:1;filter:url(#filter4341)"
             transform="translate(812.16265,-448.50773)" />
          <circle
             r="176.7767"
             cy="593.75293"
             cx="-458.60925"
             transform="matrix(0.9629619,0,0,0.9629619,776.48881,-403.78782)"
             id="path3266"
             style="fill:url(#linearGradient3596);fill-opacity:1;stroke:none" />
          <path
             inkscape:connector-curvature="0"
             clip-path="url(#clipPath4369-0)"
             id="path3268"
             d="m -477.65625,438.90625 c -5.6835,0.2486 -11.62629,4.9481 -14.1875,14.78125 -2.23854,8.59435 -0.63833,14.73988 5.28125,20.21875 1.91496,1.77239 3.6328,4.86821 4.625,8.28125 1.3861,4.76803 1.4116,6.21611 0.21875,11.65625 -1.18098,5.38603 -1.60947,6.15179 -3.3125,5.71875 -1.08151,-0.275 -6.24375,-0.48445 -11.46875,-0.46875 -8.55571,0.0258 -10.64309,0.45338 -21,4.15625 -10.85501,3.88095 -76.52533,30.29326 -78.78125,31.6875 -0.57813,0.3573 -2.01729,-0.54357 -3.1875,-2.03125 -2.8353,-3.60451 -2.32405,-7.43482 1.21875,-9.125 3.44088,-1.64155 3.69748,-5.92294 0.65625,-10.84375 -2.30002,-3.72151 -4.69227,-5.375 -7.84375,-5.375 -1.78468,0 -2.0625,-0.60425 -2.0625,-4.53125 0,-3.54283 -0.56841,-5.09966 -2.5625,-7.09375 l -2.5625,-2.5625 -16.6875,0.65625 c -9.18037,0.36517 -20.16017,1.11532 -24.40625,1.65625 -20.49699,2.61121 -32.08573,11.31121 -26.21875,19.6875 2.12419,3.0327 7.49355,5.55948 16.1875,7.65625 5.75749,1.38857 7.70324,2.365 9.3125,4.625 4.17431,5.86228 10.0574,8.26292 22.5625,9.21875 5.63637,0.43081 9.196,3.01698 11.59375,8.4375 1.70832,3.86193 2.04997,7.01663 2.25,20.65625 0.20006,13.64086 0.55723,17.09619 2.4375,22.53125 4.77686,13.80781 11.72993,20.62706 31.09375,30.5625 7.975,4.09191 18.76908,10.26237 23.96875,13.71875 10.97369,7.29455 25.93265,21.21094 31.15625,28.9375 3.62227,5.35794 3.63706,5.40056 4.28125,19.15625 0.80876,17.27011 3.74138,34.82349 8.3125,49.6875 7.26686,23.62981 8.37701,27.71414 9.75,36.5 0.77356,4.95 1.54468,11.89851 1.71875,15.40625 0.1206,2.17973 0.18146,4.54777 0.34375,6.59375 l 0.15625,0.0937 -0.15625,3.125 10.78125,-0.6875 1.1875,-2.21875 0.0937,-1.4375 L -493.375,786 c -0.60675,-0.85185 -0.72211,-3.34759 -0.875,-9.90625 -0.13495,-5.78938 0.012,-10.53125 0.3125,-10.53125 1.36797,0 3.2702,7.13635 3.59375,13.5 0.18632,3.66451 0.20299,5.41919 -0.15625,6.3125 l 0.0625,-0.0312 -0.1875,0.25 c -0.0151,0.0262 -0.0151,0.0695 -0.0312,0.0937 l -0.0937,0.0937 -0.53125,0.78125 -0.25,4.5 8.125,2.28125 3.9375,-0.0937 0.75,-2.8125 -0.25,-4.375 -0.0312,0 -0.25,-6 c -0.5614,-13.08765 -3.47528,-40.33832 -5.78125,-54.28125 -2.89981,-17.53362 -5.20419,-26.2026 -10.6875,-40 -3.99396,-10.04981 -4.05203,-10.4016 -2.5,-13.65625 1.15849,-2.42936 2.76275,-3.76363 5.90625,-4.90625 6.96317,-2.53103 64.51835,-9.90242 78.3125,-10.03125 1.40902,-0.0132 2.66239,-0.0309 3.78125,-0.0312 7.83204,-0.002 9.25122,0.41813 14,2.75 7.08651,3.47978 18.95143,14.97783 23.5625,22.84375 5.65499,9.64671 10.19964,21.34788 13.65625,35.125 5.49594,21.90528 8.46128,57.19688 5.5625,65.96875 l -1.25,3.78125 -0.5625,2.09375 -0.25,2.46875 3.34375,1.84375 5.75,-0.46875 2.3125,-0.9375 0.1875,-4.03125 -0.5,-2.34375 0.0625,0 c -0.1993,-1.24407 -0.10886,-3.62057 0.21875,-8.28125 0.65175,-9.27198 1.72641,-13.286 3.5625,-13.1875 0.12241,0.007 0.24569,0.0197 0.375,0.0625 1.86139,0.61561 2.07249,14.86921 0.28125,19.15625 -0.41368,0.99006 -0.94192,1.81791 -1.46875,2.4375 l -0.0937,0.125 -1.09375,1.46875 -0.6875,2.375 -0.0625,1.90625 3.03125,1.5 7.5,0.28125 2.96875,-0.96875 0.75,-4.90625 0,-0.0312 0.75,-9.375 c 0.41904,-5.3625 1.49444,-14.39627 2.375,-20.09375 2.67086,-17.28116 3.24867,-25.8984 2.3125,-34.46875 -1.10568,-10.12221 -5.29209,-19.31368 -10.8125,-23.75 -3.59752,-2.89104 -3.84245,-3.47356 -4.5,-10.25 -0.38324,-3.94956 -2.23346,-13.7125 -4.09375,-21.6875 -4.59309,-19.69021 -6.09752,-31.93904 -4.5625,-37.0625 0.64856,-2.1647 1.48458,-3.9025 1.875,-3.875 0.39042,0.0275 5.44375,5.97438 11.21875,13.21875 12.09429,15.17151 26.73732,31.71875 28.0625,31.71875 1.42187,0 5.84063,-7.1719 6.53125,-10.625 1.01119,-5.05593 -1.9957,-9.68785 -10.96875,-16.96875 -12.03358,-9.76426 -39.10798,-37.52582 -47.21875,-48.40625 -20.16425,-27.04995 -28.0659,-43.68774 -31.03125,-65.375 -1.94889,-14.25335 -3.64847,-18.01032 -8.375,-18.40625 -2.99179,-0.25062 -4.44382,0.50543 -10,5.21875 -8.08272,6.8566 -14.48245,10.40554 -20.1875,11.1875 -3.7596,0.51531 -4.85031,0.23948 -7.4375,-1.9375 -3.76503,-3.16806 -5.03483,-7.3292 -6.3125,-20.6875 -1.6598,-17.3536 -5.69558,-27.69558 -14.0625,-36.0625 -2.65535,-2.65535 -5.96533,-5.11494 -7.375,-5.46875 -2.47332,-0.62076 -2.54859,-0.8587 -1.96875,-6.40625 1.35838,-12.99631 -5.50515,-20.03837 -12.8125,-19.71875 z m -34.125,72.65625 c 0.17528,0 -0.98168,2.5875 -2.5625,5.75 -1.58081,3.1625 -4.83197,10.25 -7.21875,15.75 -6.02792,13.89047 -9.95214,20.32714 -16.40625,26.78125 -6.54023,6.54023 -18.93913,13.27705 -32.53125,17.71875 -5.05066,1.65048 -9.49081,3 -9.875,3 -1.34662,0 -7.30409,-10.93594 -9.09375,-16.6875 -0.99403,-3.19459 -2.13389,-8.85 -2.53125,-12.5625 l -0.71875,-6.75 5.5625,0 c 3.18669,0 9.08988,-1.0782 13.84375,-2.5625 9.59296,-2.99519 33.18878,-14.31462 49.75,-23.84375 6.29513,-3.62214 11.60597,-6.59375 11.78125,-6.59375 z"
             style="fill:#ffffff;stroke:#ffffff;stroke-width:22;stroke-linecap:butt;stroke-linejoin:miter;stroke-miterlimit:4;stroke-dasharray:none;stroke-opacity:1;filter:url(#filter4363)"
             transform="translate(812.16265,-448.50773)" />
          <path
             sodipodi:nodetypes="sssssscssssssssccsssssssssssssscccccsccccsssssssssssssssssssssssssssssccsssscssscccsccssssccccssscsscccss"
             inkscape:connector-curvature="0"
             id="path3270"
             d="m 334.5064,-9.6014799 c -5.6835,0.2486 -11.62629,4.9481 -14.1875,14.78125 -2.23854,8.5943499 -0.63833,14.7398799 5.28125,20.2187499 1.91496,1.77239 3.6328,4.86821 4.625,8.28125 1.3861,4.76803 1.4116,6.21611 0.21875,11.65625 -1.18098,5.38603 -1.60947,6.15179 -3.3125,5.71875 -1.08151,-0.275 -6.24375,-0.48445 -11.46875,-0.46875 -8.55571,0.0258 -10.64309,0.45338 -21,4.15625 -10.85501,3.88095 -76.52533,30.29326 -78.78125,31.6875 -0.57813,0.3573 -2.01729,-0.54357 -3.1875,-2.03125 -2.8353,-3.60451 -2.32405,-7.43482 1.21875,-9.125 3.44088,-1.64155 3.69748,-5.92294 0.65625,-10.84375 -2.30002,-3.72151 -4.69227,-5.375 -7.84375,-5.375 -1.78468,0 -2.0625,-0.60425 -2.0625,-4.53125 0,-3.54283 -0.56841,-5.09966 -2.5625,-7.09375 l -2.5625,-2.5625 -16.6875,0.65625 c -9.18037,0.36517 -20.16017,1.11532 -24.40625,1.65625 -20.49699,2.61121 -32.08573,11.31121 -26.21875,19.6875 2.12419,3.0327 7.49355,5.55948 16.1875,7.65625 5.75749,1.38857 7.70324,2.365 9.3125,4.625 4.17431,5.86228 10.0574,8.26292 22.5625,9.21875 5.63637,0.43081 9.196,3.01698 11.59375,8.4375 1.70832,3.86193 2.04997,7.01663 2.25,20.65625 0.20006,13.64086 0.55723,17.09619 2.4375,22.53125 4.77686,13.80781 11.72993,20.62706 31.09375,30.5625 7.975,4.09191 18.76908,10.26237 23.96875,13.71875 10.97369,7.29455 25.93265,21.21094 31.15625,28.9375 3.62227,5.35794 3.63706,5.40056 4.28125,19.15625 0.80876,17.27011 3.74138,34.82349 8.3125,49.6875 7.26686,23.62981 8.37701,27.71414 9.75,36.5 0.77356,4.95 1.54468,11.89851 1.71875,15.40625 0.1253,2.26472 0.19891,4.74592 0.375,6.84375 l -43.5625,12.53125 15.125,8.34375 137.65625,-1.03125 c 0,0 27.28109,3.5625 36.625,3.5625 9.34391,0 61.34375,-5.0625 61.34375,-5.0625 l -23.96875,-19.1875 -7.34375,-0.0937 0.75,-9.5625 c 0.41904,-5.3625 1.49444,-14.39627 2.375,-20.09375 2.67086,-17.28116 3.24867,-25.8984 2.3125,-34.46875 -1.10568,-10.12221 -5.29209,-19.31368 -10.8125,-23.75 -3.59752,-2.89104 -3.84245,-3.47356 -4.5,-10.25 -0.38324,-3.94956 -2.23346,-13.7125 -4.09375,-21.6875 -4.59309,-19.69021 -6.09752,-31.93904 -4.5625,-37.0625 0.64856,-2.1647 1.48458,-3.9025 1.875,-3.875 0.39042,0.0275 5.44375,5.97438 11.21875,13.21875 12.09429,15.17151 26.73732,31.71875 28.0625,31.71875 1.42187,0 5.84063,-7.1719 6.53125,-10.625 1.01119,-5.05593 -1.9957,-9.68785 -10.96875,-16.96875 -12.03358,-9.76426 -39.10798,-37.52582 -47.21875,-48.40625 -20.16425,-27.04995 -28.0659,-43.68774 -31.03125,-65.375 -1.94889,-14.25335 -3.64847,-18.01032 -8.375,-18.40625 -2.99179,-0.25062 -4.44382,0.50543 -10,5.21875 -8.08272,6.8566 -14.48245,10.40554 -20.1875,11.1875 -3.7596,0.51531 -4.85031,0.23948 -7.4375,-1.9375 -3.76503,-3.16806 -5.03483,-7.3292 -6.3125,-20.6875 -1.6598,-17.3536 -5.69558,-27.69558 -14.0625,-36.0625 -2.65535,-2.65535 -5.96533,-5.11494 -7.375,-5.46875 -2.47332,-0.62076 -2.54859,-0.8587 -1.96875,-6.40625 1.35838,-12.9963099 -5.50515,-20.0383699 -12.8125,-19.7187499 z M 300.3814,63.05477 c 0.17528,0 -0.98168,2.5875 -2.5625,5.75 -1.58081,3.1625 -4.83197,10.25 -7.21875,15.75 -6.02792,13.89047 -9.95214,20.32714 -16.40625,26.78125 -6.54023,6.54023 -18.93913,13.27705 -32.53125,17.71875 -5.05066,1.65048 -9.49081,3 -9.875,3 -1.34662,0 -7.30409,-10.93594 -9.09375,-16.6875 -0.99403,-3.19459 -2.13389,-8.85 -2.53125,-12.5625 l -0.71875,-6.75 5.5625,0 c 3.18669,0 9.08988,-1.0782 13.84375,-2.5625 9.59296,-2.99519 33.18878,-14.31462 49.75,-23.84375 6.29513,-3.62214 11.60597,-6.59375 11.78125,-6.59375 z m 101.5625,145.59375 c 7.83204,-0.002 9.25122,0.41813 14,2.75 7.08651,3.47978 18.95143,14.97783 23.5625,22.84375 5.65499,9.64671 10.19964,21.34788 13.65625,35.125 5.49594,21.90528 8.46128,57.19688 5.5625,65.96875 l -1.25,3.78125 -26.15625,-0.28125 c -14.3897,-0.15309 -42.35625,-0.50625 -62.15625,-0.78125 l -36,-0.5 -0.25,-6 c -0.5614,-13.08765 -3.47528,-40.33832 -5.78125,-54.28125 -2.89981,-17.53362 -5.20419,-26.2026 -10.6875,-40 -3.99396,-10.04981 -4.05203,-10.4016 -2.5,-13.65625 1.15849,-2.42936 2.76275,-3.76363 5.90625,-4.90625 6.96317,-2.53103 64.51835,-9.90242 78.3125,-10.03125 1.40902,-0.0132 2.66239,-0.0309 3.78125,-0.0312 z m 69.65625,107.625 c 0.12241,0.007 0.24569,0.0197 0.375,0.0625 1.86139,0.61561 2.07249,14.86921 0.28125,19.15625 -0.87888,2.10345 -2.18547,3.5625 -3.1875,3.5625 -1.52731,0 -1.63921,-0.94482 -1.03125,-9.59375 0.65175,-9.27198 1.72641,-13.286 3.5625,-13.1875 z m -153.375,0.78125 c 1.36797,0 3.2702,7.13635 3.59375,13.5 0.23966,4.71357 0.19756,6.29943 -0.5625,6.90625 l -2.3125,-0.0312 -0.15625,0.0625 c -0.60675,-0.85185 -0.72211,-3.34759 -0.875,-9.90625 -0.13495,-5.78938 0.012,-10.53125 0.3125,-10.53125 z"
             style="fill:#000000" />
        </g>
      </g>
      <g
         transform="matrix(0.92742343,0,0,0.92742343,-2329.006,307.06845)"
         id="g3555">
        <path
           transform="matrix(0.39577123,0,0,0.39577123,2278.962,35.588331)"
           style="fill:#ffffff;fill-opacity:1;stroke:#ffffff;stroke-width:18;stroke-linejoin:round;stroke-miterlimit:4;stroke-dasharray:none;filter:url(#filter4306)"
           d="m 668.64168,32.92977 0,12.15625 c 4.93958,1.9044 7.89995,5.1727 10.5,10.25 2.2806,4.5764 2.5,6.12215 2.5,18.09375 l 0,13.125 -9.46875,2.28125 c -12.0577,2.9068 -30.53905,11.93855 -47.84375,23.40625 l -12.84375,8.5 0.375,-30.65625 c 0.15429,-13.3986 0.30309,-21.95705 0.84375,-27.71875 0.91468,-9.0707 3.56295,-11.40025 10.125,-17.28125 l 0.21875,-11.65625 -32.9375,0.0625 c -30.1333,0.055 -33.78105,0.2601 -42.46875,2.25 -27.7344,6.3525 -42.92875,23.7279 -42.96875,49.125 -0.0353,22.0974 11.28005,39.97715 31.34375,49.46875 5.6811,2.6876 19.453,6.9078 26.125,8 l 4,0.65625 -3,-2.28125 c -48.4029,-36.6851 -55.06225,-86.32185 -12.78125,-95.28125 13.0291,-2.7609 18.8034,-1.5909 23.6875,4.8125 5.2887,6.9339 5.62075,10.59715 5.59375,66.65625 -0.0144,30.2909 -0.45055,53.32655 -1.03125,55.84375 -1.7413,7.1125 -6.58061,14.20165 -14.03125,16.53125 l 0,11.65625 60.125,0 0,-11.65625 c -10.011,-3.1267 -11.7154,-15.6894 -12.875,-27.5625 -0.4875,-13.4315 -0.8757,-12.43605 9.625,-25.09375 8.1344,-9.8052 18.2993,-18.40595 27.5625,-23.34375 12.42766,-6.5769 22.4553,-6.2447 32.625,1.75 l 0,28.21875 c -0.003,17.3862 -0.41645,29.7221 -1.09375,32.1875 -1.82266,7.868 -7.73288,10.7467 -12.65625,13.1875 l 0,12.3125 58.875,0 0,-12.3125 c -5.93887,-2.9636 -10.45532,-5.5676 -11.625,-13.1875 l -0.28125,-55.375 c -0.202,-38.5527 0.0527,-57.0649 0.84375,-60.875 0.92712,-6.3867 5.86672,-10.36445 10.75,-14.09375 l 0,-12.15625 z m 436.62502,15.09375 -27.4063,10.5 0,27.65625 -19.2187,0 0,14.75 19.2187,0 0,34.75 c 0,19.434 0.2566,37.6149 0.8438,41.25 1.3967,8.6472 4.7289,14.223 10.875,17.8125 2.77,1.5989 5.3784,2.5741 9.6562,2.8125 l 35.4063,0.375 -4.3438,-15.8125 -9.2187,-0.34375 c -2.8551,-0.1054 -4.9195,-0.2286 -6.5,-0.4375 -5.1738,-0.7141 -8.4545,-4.7952 -9.1875,-11 -0.6711,-5.6395 -0.125,-15.4822 -0.125,-34.375 l 0,-35.03125 25.4687,0 -0.5937,-14.75 -24.875,0 z m 31.4062,3.46875 c -1.8804,2e-5 -3.7399,0.46763 -5.5312,1.4375 -1.7913,0.96002 -3.178,2.35503 -4.1875,4.15625 -0.9996,1.79135 -1.5,3.67533 -1.5,5.625 0,1.9299 0.5103,3.78107 1.5,5.5625 0.9897,1.78145 2.3534,3.16657 4.125,4.15625 1.7814,0.9798 3.6539,1.46875 5.5937,1.46875 1.9398,0 3.791,-0.48895 5.5625,-1.46875 1.7815,-0.98968 3.1452,-2.3748 4.125,-4.15625 0.9897,-1.78143 1.5,-3.6326 1.5,-5.5625 0,-1.94967 -0.5004,-3.83365 -1.5,-5.625 -0.9996,-1.80122 -2.3961,-3.19623 -4.1875,-4.15625 -1.7913,-0.96987 -3.6196,-1.43748 -5.5,-1.4375 z m 0,1.84375 c 1.5637,2e-5 3.0681,0.40723 4.5625,1.21875 1.4945,0.80167 2.6687,1.96444 3.5,3.46875 0.8413,1.49445 1.25,3.06442 1.25,4.6875 0,1.6132 -0.3973,3.14048 -1.2187,4.625 -0.8215,1.47464 -1.9842,2.63742 -3.4688,3.46875 -1.4845,0.82145 -3.0118,1.21875 -4.625,1.21875 -1.6132,0 -3.1717,-0.3973 -4.6562,-1.21875 -1.4845,-0.83133 -2.6374,-1.99411 -3.4688,-3.46875 -0.8214,-1.48452 -1.25,-3.0118 -1.25,-4.625 0,-1.62308 0.4401,-3.19305 1.2813,-4.6875 0.8412,-1.50431 1.9842,-2.66708 3.4687,-3.46875 1.4945,-0.81152 3.0514,-1.21873 4.625,-1.21875 z m -4.9375,3.5 0,12.0625 1.9688,0 0,-5.125 1.125,0 c 0.6829,1e-5 1.2062,0.12915 1.5625,0.40625 0.5146,0.37609 1.19,1.31808 2.0312,2.8125 l 1.0625,1.90625 2.375,0 -1.4687,-2.375 c -0.7027,-1.11834 -1.2963,-1.89994 -1.7813,-2.375 -0.2573,-0.24741 -0.5744,-0.4781 -1,-0.65625 1.0392,-0.0792 1.8453,-0.44054 2.4688,-1.09375 0.6334,-0.65318 0.9687,-1.43167 0.9687,-2.3125 0,-0.62349 -0.1864,-1.19576 -0.5625,-1.75 -0.376,-0.55421 -0.8978,-0.9385 -1.5312,-1.15625 -0.6334,-0.22761 -1.6473,-0.34374 -3.0625,-0.34375 z m 1.9688,1.625 2.1875,0 c 0.9501,2e-5 1.6223,0.0802 1.9687,0.21875 0.3563,0.13857 0.6146,0.338 0.8125,0.625 0.198,0.27712 0.3125,0.61247 0.3125,0.96875 0,0.55423 -0.2093,0.97602 -0.625,1.3125 -0.4057,0.33651 -1.1842,0.53126 -2.3125,0.53125 l -2.3437,0 z m -189.56251,33.65625 -27.9688,17.3125 4.75,0.65625 c 18.2676,2.6131 24.9768,25.2432 14.0625,47.375 -3.6952,7.4932 -5.1556,8.4082 -9.8125,6.1875 -4.0516,-1.9321 -3.8245,-1.56055 -24.9062,-37.65625 -15.03521,-25.7431 -16.72911,-27.71515 -22.62501,-26.46875 -1.375,0.2906 -10.90945,3.98435 -21.21875,8.21875 -13.43266,5.5172 -15.90557,6.75215 -18.59375,7.90625 l -0.1875,5.90625 10.75,-1.25 c 17.6045,-2.0642 21.44655,-1.8642 24.40625,1.375 2.4249,2.654 10.52835,15.11855 18.21875,27.96875 7.24271,12.1022 18.62501,40.059 18.62501,45.75 0,1.2266 -2.7435,6.03395 -6.0938,10.65625 -6.7963,9.3768 -10.24236,15.6871 -13.06246,23.875 -5.142,14.9293 -6.2482,28.3043 -2.9375,35.5937 3.5853,7.8945 13.40626,14.5034 24.28126,16.3126 8.6636,1.4264 17.5384,0.2687 26.0625,-4 6.8734,-3.5067 15.3672,-12.842 19.375,-21.2813 3.595,-7.57018 3.8172,-10.859 0.8437,-12 -2.7154,-1.0421 -4.2965,0.514 -7,6.875 -2.8795,6.7751 -7.2182,11.7171 -11.7812,13.4375 -4.1727,1.5732 -13.5645,1.2013 -18.6563,-0.75 -8.8387,-3.3871 -11.1449,-11.6705 -9.0312,-32.25 2.4811,-24.157 6.2769,-34.13705 20.0937,-52.59375 24.8418,-33.184 30.0499,-46.4639 25.3438,-64.625 -1.9859,-7.6641 -5.3086,-14.1869 -9.5938,-18.875 z m 79.18751,5.8125 c -8.9181,0.22156 -21.0117,4.04025 -34.50001,10.96875 -18.0326,9.2627 -22.9788,15.72295 -25.6563,33.53125 -0.8269,5.5 -1.501,12.25 -1.5,15 0.2321,17.9997 5.7523,29.9714 14.7188,36.625 7.2205,5.358 21.101,7.1436 31.84371,6 8.2956,-0.8832 12.9264,-3.456 22.3125,-7.8125 15.0664,-8.0378 29.375,-17.875 29.375,-17.875 l -0.9687,-6.4375 c -0.06,-0.3852 -4.4178,1.58995 -8.9375,3.53125 -27.6729,11.8857 -45.5327,9.19345 -54.25001,-8.21875 -2.3922,-4.7782 -2.5101,-5.3125 -1.125,-5.3125 0.5461,0 5.63251,-2.19515 11.28121,-4.90625 15.9441,-7.6523 27.0038,-15.53105 33.0313,-23.40625 8.0909,-10.8454 7.927,-25.3752 -7.8438,-30.6875 -2.2036,-0.7423 -4.8085,-1.07385 -7.7812,-1 z m -215.31252,0.9375 c -6.99159,-0.0715 -13.28545,1.0264 -18.875,2.78125 -12.3419,3.8748 -43.2568,20.4718 -46,24.6875 -2.1837,3.3557 -5.2886,16.34935 -6,25.09375 -1.5925,19.5724 5.8169,44.3477 14.25,47.625 7.2702,2.8255 23.9216,-3.20715 38.75,-14.03125 3.8382,-2.8017 7.2319,-5.09375 7.5625,-5.09375 0.3306,0 1.39715,3.62645 2.34375,8.03125 l 1.71875,8 10.375,5.03125 c 0.63674,0.2458 1.42521,0.4143 2.5625,-0.125 15.63928,-6.0451 34.86293,-17.11375 46.1875,-24.96875 l -0.75,-6.96875 c -0.2887,0 -3.5512,1.5259 -7.25,3.375 -13.5745,6.7859 -17.3781,6.938 -19.9375,0.8125 -2.4311,-5.8186 -3.2875,-14.4673 -3.3125,-33.375 -0.0329,-24.5195 0.36431,-24.3102 6.6875,-29.375 l 3.59375,-2.875 c 0.45265,-0.3626 0.60545,-0.6964 0.59375,-0.8125 -0.008,-0.0808 -0.17851,-0.333 -0.65625,-0.5 l -8.71875,-3.03125 c -8.4441,-2.95235 -16.13341,-4.20973 -23.125,-4.28125 z m 198.31252,11.09375 c 2.7244,-0.0742 5.3501,0.70895 7.3125,2.25 2.8608,2.2466 3.8004,6.2183 4,11.1875 0,5.1146 -0.4903,6.9536 -2.9375,10.8125 -3.1403,4.9518 -8.5906,9.3878 -16.28131,13.3125 -2.5942,1.3239 -5.1254,2.40625 -5.625,2.40625 -1.344,0 -2.1562,-5.2544 -2.1562,-13.9375 0,-11.0497 2.9738,-19.2381 7.8125,-23.1875 2.33381,-1.83565 5.15061,-2.76957 7.87501,-2.84375 z m -224.37502,5.125 c 2.76939,-0.0295 5.96785,0.55255 9.6875,1.71875 l 5.5,1.71875 0,25.96875 0,25.9375 -6,3.15625 c -6.3382,3.3189 -11.0164,4.58185 -13.5,3.65625 -8.0505,-3.0001 -12.32605,-20.72415 -9.96875,-41.34375 1.4457,-12.6453 2.82265,-16.2953 7.15625,-18.9375 2.013,-1.22725 4.35561,-1.84551 7.125,-1.875 z"
           id="path3272"
           inkscape:connector-curvature="0"
           sodipodi:nodetypes="cccscccccccccscscccsssccccccsccccccccccccccccccccsccccccccsccccccccsscsccsccccccsccsccsccccccccccccccccsccscccccscscccccssscsccccsssscccscssssscccssscsccccssssccssscscsscccccccsccccccssscsssscssccccccscs" />
        <path
           id="path3274"
           style="fill:#082193;fill-opacity:1"
           d="m 2710.1843,112.66683 c -2.4324,-1.42062 -3.7443,-3.6268 -4.2971,-7.04912 -0.2324,-1.43867 -0.333,-8.634146 -0.3347,-16.325561 l 0,-13.753052 -7.6074,0 0,-5.849419 7.6074,0 0,-10.934447 10.8454,-4.166402 0,15.100849 9.8448,0 0.2326,5.849419 -10.0774,0 0,13.8647 c 0,7.477225 -0.2252,11.363103 0.04,13.595053 0.2901,2.45568 1.5885,4.07664 3.6362,4.35927 0.6255,0.0827 1.4483,0.13365 2.5783,0.17536 l 3.6503,0.1348 1.7205,6.25228 -14.0185,-0.15167 c -1.693,-0.0944 -2.7245,-0.46926 -3.8208,-1.10206 z m -36.0704,-18.687603 c 3.0438,-1.553287 5.1944,-3.315771 6.4372,-5.275555 0.9685,-1.527243 1.1683,-2.259611 1.1683,-4.283825 -0.079,-1.966669 -0.4497,-3.537439 -1.5819,-4.426585 -1.5533,-1.219803 -4.1659,-1.218972 -6.0133,0.23402 -1.915,1.563059 -3.0906,4.813013 -3.0906,9.186173 0,3.436515 0.3222,5.51844 0.8541,5.51844 0.1977,0 1.1995,-0.428703 2.2262,-0.952668 z m -14.5524,3.920947 c -4e-4,-1.088378 0.2671,-3.759827 0.5944,-5.936576 1.0597,-7.04801 3.0187,-9.608728 10.1555,-13.274636 7.1177,-3.656135 13.248,-5.121241 16.7366,-3.946116 6.2416,2.102455 6.3087,7.850236 3.1066,12.142531 -2.3855,3.116786 -6.7729,6.23325 -13.083,9.261799 -2.2357,1.072983 -4.2416,1.950885 -4.4578,1.950885 -0.5481,0 -0.5055,0.202469 0.4413,2.093549 3.45,6.89124 10.5211,7.9651 21.4733,3.26107 1.7887,-0.76831 3.5093,-1.54936 3.5328,-1.3969 l 0.3926,2.54306 c 0,0 -5.6696,3.89209 -11.6325,7.07322 -3.7147,1.72418 -5.5516,2.74582 -8.8348,3.09537 -4.2516,0.4526 -9.7444,-0.25583 -12.6021,-2.37637 -3.5487,-2.6333 -5.731,-7.36712 -5.8229,-14.490886 z m -157.1537,12.597316 c 2.9488,-0.92198 4.8643,-3.73383 5.5534,-6.54875 0.2298,-0.99622 0.395,-10.104819 0.4007,-22.093094 0.011,-22.186579 -0.1111,-23.642661 -2.2042,-26.386899 -1.933,-2.534281 -4.2179,-2.998917 -9.3745,-1.906233 -16.7336,3.545873 -14.0978,23.198567 5.0587,37.717478 l 1.1868,0.899431 -1.5831,-0.259155 c -2.6406,-0.43226 -8.0928,-2.100514 -10.3412,-3.164194 -7.9407,-3.756501 -12.4249,-10.829091 -12.411,-19.574607 0.016,-10.051441 6.037,-16.934021 17.0135,-19.448158 3.4383,-0.787544 4.8749,-0.863216 16.8008,-0.884984 l 13.0409,-0.02374 -0.087,4.612475 c -2.5971,2.327531 -3.6445,3.24671 -4.0065,6.836633 -0.214,2.280314 -0.278,5.670768 -0.3391,10.973549 l -0.1397,12.132562 5.076,-3.363823 c 6.8487,-4.538579 14.1588,-8.117301 18.9309,-9.267728 l 3.7569,-0.905684 0,-5.187333 c 0,-4.738016 -0.086,-5.359059 -0.9882,-7.170267 -1.029,-2.009448 -2.2019,-3.294201 -4.1568,-4.047909 l 0,-4.810361 22.8765,0 0,4.810361 c -1.9326,1.47595 -3.8861,3.042809 -4.2531,5.570481 -0.313,1.507928 -0.4149,8.833614 -0.3349,24.091661 l 0.1148,21.924898 c 0.4629,3.01574 2.2414,4.04323 4.5918,5.21614 l 0,4.87602 -23.2914,0 0,-4.87602 c 1.9486,-0.966 4.2808,-2.10221 5.0022,-5.21614 0.268,-0.97574 0.4357,-5.865972 0.4371,-12.746919 l 0,-11.163882 c -4.0249,-3.164068 -8.0026,-3.297166 -12.9211,-0.694219 -3.6661,1.954234 -7.6805,5.356129 -10.8999,9.23675 -4.1559,5.009541 -4.0046,4.615319 -3.8116,9.931116 0.4589,4.699034 1.1357,9.673094 5.0977,10.910544 l 0,4.61877 -23.7994,0 z m 89.6694,-6.20882 2.3746,-1.24348 0,-10.275994 0,-10.275998 -2.1767,-0.682476 c -2.9443,-0.923096 -5.0596,-0.900575 -6.653,0.07083 -1.7151,1.045701 -2.2601,2.487183 -2.8323,7.491828 -0.9329,8.160642 0.7583,15.17743 3.9445,16.36478 0.9829,0.36632 2.8344,-0.13599 5.3429,-1.44951 z m 4.1957,8.85558 -0.6811,-3.16962 c -0.3746,-1.74328 -0.7882,-3.1696 -0.919,-3.1696 -0.1309,0 -1.4808,0.90726 -2.9998,2.01609 -5.8687,4.28387 -12.4537,6.66736 -15.331,5.54911 -3.3376,-1.29706 -6.2718,-11.09849 -5.6416,-18.844683 0.2816,-3.460785 1.5148,-8.614794 2.379,-9.942879 1.0857,-1.668452 13.3217,-8.230899 18.2063,-9.764432 4.4243,-1.389039 9.9385,-1.749746 16.6224,0.587166 l 3.4462,1.204925 c 0.1891,0.0661 0.2595,0.166342 0.2627,0.198321 0,0.04595 -0.062,0.179799 -0.241,0.323305 l -1.416,1.134242 c -2.5026,2.004507 -2.6647,1.92412 -2.6517,11.628234 0.01,7.483119 0.3503,10.907611 1.3125,13.210451 1.0129,2.4243 2.513,2.36286 7.8854,-0.3228 1.4639,-0.73182 2.7551,-1.33054 2.8693,-1.33054 l 0.3062,2.75006 c -4.4819,3.10878 -12.0903,7.49488 -18.2799,9.88735 -0.4501,0.21345 -0.7682,0.14481 -1.0202,0.0476 l -4.1087,-1.9924 z m 43.5683,33.98277 c -4.304,-0.71603 -8.1931,-3.32583 -9.6121,-6.45019 -1.3103,-2.88499 -0.8735,-8.18356 1.1615,-14.09215 1.1161,-3.24054 2.4849,-5.74065 5.1747,-9.45173 1.3259,-1.82937 2.4108,-3.72329 2.4108,-4.20874 0,-2.25234 -4.5062,-13.322779 -7.3727,-18.112474 -3.0436,-5.085741 -6.2563,-10.010008 -7.216,-11.060389 -1.1714,-1.281973 -2.6849,-1.368451 -9.6523,-0.551503 l -4.2545,0.498869 0.069,-2.343638 c 1.0639,-0.456757 2.0398,-0.940707 7.3561,-3.124258 4.0801,-1.675854 7.8636,-3.141118 8.4078,-3.256128 2.3334,-0.49329 2.9988,0.285509 8.9493,10.473886 8.3435,14.285645 8.2489,14.142529 9.8524,14.907195 1.8431,0.8789 2.4254,0.51135 3.8879,-2.454258 4.3195,-8.759124 1.6613,-17.704465 -5.5685,-18.738657 l -1.8736,-0.268013 11.0712,-6.845259 1.3235,1.447928 c 1.696,1.855415 3.0064,4.436636 3.7924,7.469865 1.8625,7.187641 -0.1967,12.438539 -10.0284,25.571814 -5.4683,7.30462 -6.978,11.25198 -7.9599,20.81261 -0.8366,8.14478 0.085,11.42765 3.5827,12.76817 2.0152,0.77227 5.7326,0.92397 7.3841,0.30134 1.8059,-0.68089 3.5233,-2.64126 4.6629,-5.32264 1.07,-2.51749 1.6938,-3.12983 2.7685,-2.7174 1.1768,0.45158 1.0842,1.74915 -0.3386,4.7452 -1.5862,3.34004 -4.9462,7.02883 -7.6665,8.41663 -3.3736,1.68942 -6.8808,2.14849 -10.3096,1.58392 z"
           inkscape:connector-curvature="0"
           sodipodi:nodetypes="cccccccccccccsccsccccsscscssscssscsssssccsscccsssccsscsscccscsscsccccccscccccccccscccccccccscscccssscscsssssscsccccccccsssscsccccssssccccssssscssccc" />
        <g
           transform="matrix(0.39577123,0,0,0.39577123,2798.0226,-260.64949)"
           style="font-style:normal;font-weight:normal;font-size:30.40321732px;line-height:125%;font-family:Sans;letter-spacing:0px;word-spacing:0px;fill:#000000;fill-opacity:1;stroke:none"
           id="g3276">
          <path
             d="m -174.85378,799.9974 c 1.88039,2e-5 3.71626,0.48497 5.50761,1.45484 1.79132,0.96002 3.18678,2.34063 4.18638,4.14185 0.99956,1.79135 1.49936,3.66186 1.49938,5.61153 -2e-5,1.9299 -0.49487,3.78556 -1.48453,5.56699 -0.97981,1.78145 -2.36043,3.16701 -4.14185,4.15669 -1.77155,0.9798 -3.62722,1.46969 -5.56699,1.46969 -1.9398,0 -3.80041,-0.48989 -5.58184,-1.46969 -1.77155,-0.98968 -3.15216,-2.37524 -4.14185,-4.15669 -0.98969,-1.78143 -1.48453,-3.63709 -1.48453,-5.56699 0,-1.94967 0.49979,-3.82018 1.49938,-5.61153 1.00948,-1.80122 2.40988,-3.18183 4.20122,-4.14185 1.79133,-0.96987 3.6272,-1.45482 5.50762,-1.45484 m 0,1.85567 c -1.57362,2e-5 -3.10763,0.40579 -4.60205,1.21731 -1.48454,0.80167 -2.64742,1.95465 -3.48865,3.45896 -0.84124,1.49445 -1.26186,3.0532 -1.26186,4.67628 0,1.6132 0.41072,3.16206 1.23217,4.64658 0.83133,1.47464 1.98926,2.62763 3.4738,3.45896 1.48452,0.82145 3.03339,1.23217 4.64659,1.23217 1.61318,0 3.16204,-0.41072 4.64658,-1.23217 1.48452,-0.83133 2.6375,-1.98432 3.45896,-3.45896 0.82142,-1.48452 1.23214,-3.03338 1.23216,-4.64658 -2e-5,-1.62308 -0.42063,-3.18183 -1.26185,-4.67628 -0.83136,-1.50431 -1.99424,-2.65729 -3.48865,-3.45896 -1.49444,-0.81152 -3.02351,-1.21729 -4.5872,-1.21731 m -4.9138,15.54305 0,-12.0544 4.14184,0 c 1.41524,10e-6 2.43957,0.11383 3.07298,0.34144 0.63339,0.21775 1.13813,0.60372 1.51422,1.15793 0.37607,0.55424 0.56411,1.14311 0.56413,1.7666 -2e-5,0.88083 -0.31672,1.64784 -0.9501,2.30102 -0.62352,0.65321 -1.45486,1.01939 -2.49402,1.09856 0.42555,0.17815 0.767,0.39093 1.02433,0.63834 0.48493,0.47506 1.07874,1.27176 1.78144,2.3901 l 1.46968,2.36041 -2.37525,0 -1.06886,-1.9002 c -0.84125,-1.49442 -1.51918,-2.42968 -2.03381,-2.80577 -0.3563,-0.2771 -0.87588,-0.41566 -1.55876,-0.41567 l -1.14309,0 0,5.12164 -1.94473,0 m 1.94473,-6.78431 2.36041,0 c 1.12823,10e-6 1.89524,-0.16824 2.30102,-0.50475 0.41566,-0.33648 0.62349,-0.78184 0.62351,-1.33607 -2e-5,-0.35628 -0.099,-0.67298 -0.29691,-0.9501 -0.19795,-0.287 -0.47506,-0.49978 -0.83134,-0.63835 -0.3464,-0.13854 -0.99465,-0.20782 -1.94473,-0.20784 l -2.21196,0 0,3.63711"
             style="font-variant:normal;font-stretch:normal;font-family:Arial;-inkscape-font-specification:Arial;text-align:start;writing-mode:lr-tb;text-anchor:start"
             id="path3278"
             inkscape:connector-curvature="0" />
        </g>
      </g>
    </g>
  </g>
</svg>
